<svg width="30" height="38" viewBox="0 0 30 38" fill="none" xmlns="http://www.w3.org/2000/svg">
<path d="M15 0C9.83063 0 5.625 4.20562 5.625 9.375V15H3.75C1.68187 15 0 16.6819 0 18.75V33.75C0 35.8181 1.68187 37.5 3.75 37.5H26.25C28.3181 37.5 30 35.8181 30 33.75V18.75C30 16.6819 28.3181 15 26.25 15H24.375V9.375C24.375 4.20562 20.1694 0 15 0ZM26.25 18.75L26.2538 33.75H3.75V18.75H26.25ZM9.375 15V9.375C9.375 6.27375 11.8988 3.75 15 3.75C18.1012 3.75 20.625 6.27375 20.625 9.375V15H9.375Z" fill="#DADADA" fill-opacity="0.33"/>
</svg>
