<svg width="23" height="27" viewBox="0 0 23 27" fill="none" xmlns="http://www.w3.org/2000/svg">
<path d="M11.5 13.5C15.1297 13.5 18.0714 10.4783 18.0714 6.75C18.0714 3.02168 15.1297 0 11.5 0C7.87031 0 4.92857 3.02168 4.92857 6.75C4.92857 10.4783 7.87031 13.5 11.5 13.5ZM16.1 15.1875H15.2426C14.1029 15.7254 12.8348 16.0312 11.5 16.0312C10.1652 16.0312 8.90223 15.7254 7.75737 15.1875H6.9C3.09063 15.1875 0 18.3621 0 22.275V24.4688C0 25.8662 1.10379 27 2.46429 27H20.5357C21.8962 27 23 25.8662 23 24.4688V22.275C23 18.3621 19.9094 15.1875 16.1 15.1875Z" fill="white"/>
</svg>
